{"asset":{"version":"2.0","generator":"THREE.GLTFExporter"},"scenes":[{"nodes":[0],"name":"AuxScene"}],"scene":0,"nodes":[{"mesh":0}],"bufferViews":[{"buffer":0,"byteOffset":0,"byteLength":7128,"target":34962,"byteStride":12},{"buffer":0,"byteOffset":7128,"byteLength":7128,"target":34962,"byteStride":12}],"buffers":[{"byteLength":14256,"uri":"data:application/octet-stream;base64,"}],"accessors":[{"bufferView":0,"componentType":5126,"count":594,"max":[3.359999895095825,19.200000762939453,3.7435970306396484],"min":[-3.3399999141693115,0.20000000298023224,-8.106403350830078],"type":"VEC3"},{"bufferView":1,"componentType":5126,"count":594,"max":[0,1,0],"min":[0,0.9863936305046082,-0.1644005924463272],"type":"VEC3"}],"materials":[{"pbrMetallicRoughness":{"baseColorFactor":[0.5019607843137255,0.5019607843137255,0.5019607843137255,1],"metallicFactor":0,"roughnessFactor":1}}],"meshes":[{"primitives":[{"mode":4,"attributes":{"POSITION":0,"NORMAL":1},"material":0}]}]}